<svg width="254" height="254" viewBox="0 0 254 254" fill="none" xmlns="http://www.w3.org/2000/svg">
<path d="M79.9302 201.224C80.5138 200.161 81.2424 199.352 82.1159 198.797C82.974 198.247 83.9403 197.982 85.0148 198.003C86.0793 198.019 87.1878 198.343 88.3402 198.976L91.8569 200.907L86.0804 211.427L82.5636 209.496C81.4113 208.864 80.5428 208.102 79.9583 207.212C79.3583 206.327 79.0602 205.375 79.064 204.355C79.0578 203.33 79.3465 202.287 79.9302 201.224ZM87.6315 200.584C86.3699 199.892 85.2213 199.688 84.1857 199.972C83.1502 200.257 82.3079 200.991 81.6588 202.173C81.0096 203.355 80.8429 204.459 81.1584 205.486C81.4739 206.512 82.2625 207.372 83.5241 208.065L85.208 208.989L89.3154 201.509L87.6315 200.584Z" fill="white"/>
<path d="M69.2977 197.559C68.5939 196.988 68.0818 196.324 67.7616 195.567C67.4413 194.811 67.3514 194.023 67.4918 193.202C67.6323 192.382 68.0097 191.594 68.624 190.837C69.2455 190.071 69.9432 189.536 70.7171 189.23C71.491 188.924 72.281 188.85 73.087 189.008C73.893 189.166 74.6479 189.531 75.3518 190.102C76.0557 190.674 76.5677 191.338 76.888 192.094C77.1994 192.843 77.2893 193.631 77.1577 194.459C77.0101 195.288 76.6292 196.081 76.0148 196.837C75.4005 197.594 74.7064 198.125 73.9324 198.431C73.1497 198.73 72.3598 198.804 71.5626 198.653C70.7566 198.495 70.0016 198.13 69.2977 197.559ZM70.3585 196.252C70.7457 196.567 71.1735 196.768 71.6419 196.856C72.1103 196.945 72.5957 196.886 73.0981 196.681C73.5845 196.477 74.0421 196.112 74.4707 195.584C74.9064 195.047 75.174 194.52 75.2733 194.002C75.3638 193.477 75.3177 192.994 75.135 192.554C74.9523 192.114 74.6674 191.736 74.2803 191.422C73.8931 191.108 73.4654 190.906 72.9969 190.818C72.5285 190.73 72.0511 190.787 71.5646 190.991C71.0694 191.187 70.6039 191.554 70.1681 192.091C69.7395 192.619 69.48 193.145 69.3895 193.67C69.283 194.197 69.3211 194.68 69.5038 195.121C69.6865 195.561 69.9714 195.938 70.3585 196.252Z" fill="white"/>
<path d="M52.6304 179.904L61.4764 175.873L62.8538 177.513L58.7944 183.941L65.8491 181.08L67.2156 182.708L61.7147 190.723L60.4575 189.226L65.1162 182.983L57.8011 186.062L56.4893 184.5L60.7653 177.802L53.811 181.31L52.6304 179.904Z" fill="white"/>
<path d="M46.8829 170.279C46.3587 169.326 46.246 168.392 46.5449 167.477C46.8439 166.562 47.5644 165.791 48.7064 165.163L53.488 162.533L54.4219 164.232L49.819 166.763C49.0842 167.167 48.6219 167.667 48.4322 168.263C48.2325 168.864 48.313 169.492 48.6734 170.148C49.0448 170.823 49.5609 171.244 50.2217 171.411C50.8727 171.583 51.6152 171.44 52.4494 170.981L56.814 168.581L57.7478 170.279L49.5401 174.793L48.6062 173.095L50.4087 172.104C49.6728 172.224 48.9941 172.119 48.3724 171.788C47.7508 171.457 47.2543 170.954 46.8829 170.279Z" fill="white"/>
<path d="M38.8107 159.71L50.5842 155.278L51.267 157.092L39.4934 161.523L38.8107 159.71Z" fill="white"/>
<path d="M38.3157 146.958C38.1156 146.074 38.1235 145.235 38.3392 144.443C38.555 143.65 38.9716 142.975 39.589 142.417C40.2064 141.859 40.9905 141.472 41.9411 141.257C42.9028 141.04 43.7824 141.05 44.5799 141.288C45.3773 141.526 46.044 141.956 46.5799 142.578C47.1158 143.201 47.4838 143.954 47.6839 144.838C47.884 145.723 47.8761 146.561 47.6604 147.353C47.4421 148.135 47.0255 148.81 46.4106 149.379C45.7821 149.94 44.9926 150.328 44.0419 150.543C43.0913 150.758 42.2172 150.746 41.4197 150.508C40.6198 150.26 39.9531 149.829 39.4197 149.218C38.8838 148.596 38.5158 147.842 38.3157 146.958ZM39.9572 146.586C40.0672 147.073 40.2791 147.496 40.5927 147.855C40.9063 148.213 41.324 148.468 41.8458 148.617C42.354 148.757 42.9398 148.753 43.603 148.603C44.2773 148.45 44.8135 148.201 45.2117 147.855C45.6074 147.498 45.8695 147.091 45.9981 146.632C46.1266 146.173 46.1359 145.7 46.0258 145.213C45.9158 144.727 45.7039 144.304 45.3903 143.945C45.0767 143.586 44.6658 143.337 44.1576 143.196C43.6468 143.044 43.0543 143.045 42.38 143.197C41.7168 143.347 41.1873 143.601 40.7916 143.958C40.3824 144.306 40.1135 144.709 39.985 145.168C39.8564 145.627 39.8472 146.1 39.9572 146.586Z" fill="white"/>
<path d="M36.3288 132.25C36.288 131.401 36.4627 130.667 36.8527 130.046C37.2427 129.426 37.777 128.975 38.4556 128.693L36.2821 128.797L36.1892 126.862L45.5454 126.412L45.6383 128.348L43.4648 128.452C44.1673 128.668 44.7424 129.066 45.1901 129.646C45.6378 130.226 45.882 130.94 45.9228 131.789C45.9619 132.604 45.8045 133.344 45.4506 134.008C45.0962 134.66 44.5654 135.185 43.8583 135.582C43.1512 135.979 42.3052 136.201 41.3203 136.248C40.3468 136.295 39.4891 136.155 38.7472 135.827C38.0053 135.5 37.4267 135.028 37.0113 134.413C36.5955 133.786 36.368 133.065 36.3288 132.25ZM37.9983 131.574C38.0396 132.435 38.3501 133.112 38.9298 133.606C39.4977 134.089 40.2627 134.308 41.2249 134.262C42.1872 134.215 42.9334 133.924 43.4636 133.388C43.982 132.841 44.2205 132.138 44.1792 131.277C44.1531 130.734 44.0052 130.253 43.7355 129.835C43.4545 129.417 43.0759 129.095 42.5998 128.868C42.1237 128.642 41.5744 128.543 40.9517 128.573C40.3404 128.603 39.8087 128.753 39.3565 129.024C38.8931 129.296 38.5471 129.653 38.3187 130.095C38.079 130.538 37.9722 131.031 37.9983 131.574Z" fill="white"/>
<path d="M36.9388 115.974C37.0505 115.131 37.3537 114.44 37.8484 113.899C38.343 113.359 38.9486 113.016 39.6653 112.871L34.323 112.163L34.58 110.225L47.0508 111.878L46.7939 113.816L44.6368 113.53C45.2908 113.857 45.7862 114.346 46.123 114.996C46.4597 115.647 46.5722 116.393 46.4605 117.236C46.3532 118.045 46.0662 118.744 45.5993 119.334C45.1339 119.913 44.5178 120.334 43.7511 120.598C42.9844 120.862 42.1123 120.93 41.1349 120.8C40.1686 120.672 39.3499 120.38 38.6785 119.926C38.0071 119.471 37.5221 118.903 37.2236 118.224C36.9265 117.533 36.8316 116.783 36.9388 115.974ZM38.7023 115.607C38.5891 116.461 38.7735 117.183 39.2555 117.773C39.7277 118.35 40.4413 118.702 41.3963 118.828C42.3513 118.955 43.1375 118.802 43.7551 118.369C44.3629 117.924 44.7234 117.274 44.8366 116.421C44.9081 115.881 44.8486 115.382 44.658 114.922C44.4562 114.461 44.1414 114.076 43.7135 113.768C43.2856 113.46 42.7627 113.265 42.1448 113.183C41.5381 113.102 40.9881 113.155 40.4947 113.341C39.99 113.526 39.5858 113.815 39.282 114.209C38.967 114.602 38.7738 115.068 38.7023 115.607Z" fill="white"/>
<path d="M53.4274 80.1345C54.4874 80.7236 55.2925 81.4564 55.8427 82.3327C56.3885 83.1936 56.6481 84.1613 56.6214 85.2356C56.6003 86.3001 56.2704 87.4069 55.6317 88.556L53.6826 92.0627L43.1922 86.2319L45.1413 82.7252C45.7799 81.5761 46.5457 80.7116 47.4386 80.1316C48.327 79.5363 49.2809 79.2431 50.3003 79.2521C51.3251 79.2512 52.3675 79.5453 53.4274 80.1345ZM54.0269 87.839C54.7262 86.581 54.9361 85.4334 54.6567 84.3964C54.3773 83.3594 53.6482 82.5133 52.4694 81.8581C51.2906 81.2029 50.1871 81.0304 49.1589 81.3406C48.1307 81.6509 47.2669 82.435 46.5677 83.6931L45.6344 85.3721L53.0937 89.5181L54.0269 87.839Z" fill="white"/>
<path d="M57.1478 69.5211C57.7229 68.8202 58.3895 68.3116 59.1474 67.9952C59.9054 67.6789 60.6942 67.5931 61.5137 67.7377C62.3332 67.8824 63.1198 68.2639 63.8733 68.8821C64.6355 69.5075 65.1676 70.208 65.4696 70.9835C65.7715 71.759 65.8414 72.5493 65.6792 73.3545C65.517 74.1596 65.1484 74.9127 64.5733 75.6136C63.9982 76.3145 63.3316 76.8232 62.5737 77.1395C61.8229 77.4471 61.0341 77.5329 60.2074 77.397C59.3791 77.2451 58.5882 76.8601 57.8347 76.2419C57.0812 75.6236 56.5535 74.9267 56.2515 74.1512C55.9568 73.367 55.8869 72.5767 56.0419 71.7803C56.2041 70.9751 56.5727 70.222 57.1478 69.5211ZM58.4489 70.5887C58.1326 70.9742 57.9291 71.4009 57.8383 71.8689C57.7476 72.3368 57.8035 72.8225 58.0062 73.326C58.2072 73.8134 58.5706 74.2729 59.0963 74.7042C59.6308 75.1427 60.1567 75.413 60.6741 75.5149C61.1987 75.6082 61.6815 75.5646 62.1228 75.3842C62.564 75.2038 62.9427 74.9208 63.259 74.5353C63.5754 74.1498 63.7789 73.723 63.8696 73.2551C63.9604 72.7871 63.9052 72.3094 63.7042 71.8219C63.5103 71.3257 63.1461 70.8583 62.6116 70.4198C62.0859 69.9884 61.5608 69.7262 61.0362 69.6329C60.5101 69.5238 60.0264 69.5594 59.5852 69.7398C59.144 69.9202 58.7652 70.2031 58.4489 70.5887Z" fill="white"/>
<path d="M74.8875 52.945L78.8733 61.8118L77.2258 63.1807L70.8193 59.0881L73.6431 66.1575L72.0087 67.5156L64.0219 61.9733L65.5256 60.7239L71.744 65.4148L68.7029 58.0839L70.2719 56.7801L76.948 61.0907L73.4754 54.1184L74.8875 52.945Z" fill="white"/>
<path d="M84.5417 47.2475C85.4977 46.7281 86.4323 46.6203 87.3453 46.924C88.2583 47.2276 89.0259 47.9521 89.648 49.0973L92.2529 53.8925L90.55 54.8176L88.0425 50.2017C87.6421 49.4648 87.1445 48.9999 86.5497 48.8071C85.9495 48.6044 85.3207 48.6815 84.6634 49.0386C83.9862 49.4065 83.5625 49.9204 83.3922 50.5804C83.2166 51.2304 83.3559 51.9737 83.8104 52.8103L86.188 57.1871L84.4851 58.1122L80.0138 49.8813L81.7167 48.9562L82.6986 50.7637C82.5823 50.0273 82.6911 49.3491 83.025 48.7292C83.3589 48.1092 83.8645 47.6154 84.5417 47.2475Z" fill="white"/>
<path d="M95.1546 39.2292L99.5254 51.0255L97.7082 51.6988L93.3373 39.9025L95.1546 39.2292Z" fill="white"/>
<path d="M107.907 38.799C108.792 38.6035 109.63 38.6157 110.422 38.8355C111.213 39.0554 111.886 39.4755 112.441 40.0957C112.996 40.716 113.378 41.502 113.589 42.4538C113.801 43.4166 113.786 44.2961 113.544 45.0924C113.303 45.8886 112.869 46.5531 112.244 47.0857C111.619 47.6184 110.863 47.9825 109.978 48.178C109.093 48.3735 108.254 48.3614 107.463 48.1415C106.683 47.9192 106.01 47.4991 105.444 46.8813C104.886 46.2499 104.503 45.4584 104.293 44.5066C104.082 43.5549 104.098 42.6809 104.34 41.8847C104.593 41.086 105.027 40.4215 105.641 39.8913C106.266 39.3586 107.021 38.9945 107.907 38.799ZM108.27 40.4424C107.783 40.5499 107.359 40.7596 106.998 41.0713C106.638 41.3831 106.382 41.7995 106.23 42.3205C106.086 42.828 106.088 43.4137 106.235 44.0777C106.384 44.7528 106.63 45.2903 106.974 45.6903C107.329 46.0878 107.735 46.352 108.193 46.4829C108.652 46.6139 109.124 46.6256 109.611 46.518C110.098 46.4105 110.522 46.2008 110.883 45.8891C111.243 45.5773 111.495 45.1677 111.638 44.6602C111.793 44.1503 111.795 43.5578 111.646 42.8827C111.5 42.2187 111.249 41.6879 110.894 41.2904C110.548 40.8794 110.146 40.6084 109.688 40.4775C109.229 40.3466 108.757 40.3349 108.27 40.4424Z" fill="white"/>
<path d="M122.626 36.8899C123.475 36.8535 124.208 37.032 124.826 37.4252C125.445 37.8184 125.893 38.3551 126.172 39.0351L126.078 36.8611L128.015 36.7781L128.416 46.1365L126.479 46.2195L126.386 44.0455C126.167 44.7469 125.766 45.3199 125.184 45.7645C124.602 46.2092 123.886 46.4497 123.037 46.4861C122.221 46.5211 121.483 46.3599 120.821 46.0025C120.17 45.6447 119.648 45.1112 119.255 44.4021C118.862 43.693 118.644 42.8458 118.602 41.8607C118.56 40.887 118.705 40.03 119.036 39.2898C119.367 38.5496 119.842 37.9734 120.459 37.5613C121.088 37.1486 121.81 36.9249 122.626 36.8899ZM123.293 38.5629C122.432 38.5998 121.753 38.9068 121.256 39.4839C120.77 40.0493 120.548 40.8131 120.589 41.7756C120.63 42.738 120.917 43.4858 121.451 44.0188C121.995 44.5399 122.697 44.7821 123.558 44.7452C124.101 44.7219 124.583 44.5765 125.002 44.309C125.421 44.0301 125.746 43.6532 125.975 43.1783C126.204 42.7034 126.305 42.1546 126.279 41.5318C126.252 40.9203 126.105 40.3878 125.836 39.9343C125.566 39.4694 125.211 39.1216 124.77 38.8909C124.329 38.649 123.836 38.5396 123.293 38.5629Z" fill="white"/>
<path d="M138.898 37.5834C139.74 37.6995 140.43 38.0063 140.968 38.5037C141.506 39.0011 141.845 39.6085 141.987 40.3259L142.723 34.9874L144.659 35.2543L142.941 47.7165L141.005 47.4495L141.302 45.2939C140.972 45.9463 140.481 46.4391 139.828 46.7725C139.176 47.1059 138.429 47.2145 137.587 47.0985C136.778 46.987 136.081 46.6964 135.493 46.2264C134.917 45.758 134.499 45.1398 134.239 44.3717C133.978 43.6037 133.916 42.7313 134.05 41.7545C134.183 40.789 134.479 39.9717 134.937 39.3027C135.396 38.6337 135.966 38.1516 136.647 37.8566C137.34 37.5631 138.09 37.472 138.898 37.5834ZM139.256 39.3488C138.402 39.2312 137.68 39.4118 137.087 39.8908C136.508 40.36 136.152 41.0718 136.021 42.0261C135.889 42.9804 136.038 43.7675 136.467 44.3872C136.91 44.9973 137.557 45.3612 138.411 45.4788C138.95 45.5531 139.449 45.4961 139.91 45.308C140.372 45.1085 140.759 44.7957 141.069 44.3694C141.379 43.9432 141.577 43.4213 141.662 42.8038C141.746 42.1975 141.696 41.6472 141.512 41.1529C141.33 40.6473 141.043 40.2416 140.651 39.9358C140.26 39.6187 139.795 39.4231 139.256 39.3488Z" fill="white"/>
<path d="M174.652 54.2572C174.057 55.3141 173.321 56.1154 172.441 56.6611C171.578 57.2024 170.609 57.457 169.535 57.4249C168.47 57.3982 167.365 57.0626 166.219 56.418L162.723 54.4508L168.608 43.9906L172.104 45.9578C173.25 46.6024 174.111 47.3726 174.686 48.2685C175.277 49.16 175.565 50.1154 175.551 51.1347C175.546 52.1595 175.247 53.2003 174.652 54.2572ZM166.945 54.8169C168.199 55.5226 169.345 55.7385 170.384 55.4645C171.422 55.1904 172.272 54.4657 172.933 53.2903C173.595 52.1149 173.773 51.0123 173.468 49.9825C173.163 48.9527 172.383 48.0849 171.129 47.3792L169.455 46.4373L165.27 53.875L166.945 54.8169Z" fill="white"/>
<path d="M185.246 58.0326C185.944 58.6113 186.449 59.2804 186.761 60.0401C187.074 60.7997 187.155 61.5888 187.007 62.4076C186.858 63.2264 186.472 64.0109 185.85 64.7612C185.221 65.5203 184.518 66.0487 183.74 66.3467C182.963 66.6446 182.173 66.7104 181.368 66.5441C180.564 66.3777 179.813 66.0052 179.115 65.4265C178.417 64.8478 177.912 64.1786 177.599 63.419C177.296 62.6666 177.214 61.8775 177.354 61.0514C177.51 60.2239 177.899 59.435 178.522 58.6847C179.144 57.9344 179.843 57.4103 180.62 57.1124C181.406 56.8217 182.197 56.7559 182.992 56.915C183.797 57.0813 184.548 57.4539 185.246 58.0326ZM184.172 59.3281C183.788 59.0099 183.362 58.8041 182.895 58.711C182.427 58.6178 181.941 58.6712 181.437 58.8713C180.948 59.0698 180.487 59.4308 180.053 59.9543C179.611 60.4865 179.338 61.011 179.234 61.5278C179.138 62.0519 179.179 62.535 179.357 62.9772C179.535 63.4193 179.816 63.7995 180.2 64.1178C180.584 64.4361 181.01 64.6419 181.477 64.735C181.945 64.8282 182.423 64.7755 182.911 64.5769C183.408 64.3856 183.878 64.0239 184.319 63.4917C184.753 62.9682 185.018 62.4445 185.114 61.9204C185.226 61.3948 185.193 60.9109 185.015 60.4688C184.836 60.0267 184.555 59.6464 184.172 59.3281Z" fill="white"/>
<path d="M201.73 75.8576L192.843 79.7975L191.482 78.143L195.608 71.7577L188.524 74.545L187.175 72.9036L192.758 64.9455L194 66.4556L189.277 72.6498L196.623 69.6465L197.919 71.2223L193.574 77.876L200.564 74.4395L201.73 75.8576Z" fill="white"/>
<path d="M207.378 85.5427C207.892 86.5014 207.995 87.4364 207.687 88.3479C207.379 89.2593 206.65 90.0232 205.502 90.6394L200.693 93.2194L199.777 91.5117L204.406 89.0281C205.145 88.6316 205.612 88.1364 205.808 87.5426C206.014 86.9434 205.94 86.3143 205.586 85.6551C205.222 84.9761 204.71 84.5497 204.051 84.376C203.402 84.197 202.658 84.3325 201.819 84.7826L197.43 87.1376L196.514 85.4299L204.767 81.0012L205.684 82.7089L203.871 83.6814C204.608 83.5689 205.286 83.6812 205.904 84.0183C206.522 84.3555 207.013 84.8636 207.378 85.5427Z" fill="white"/>
<path d="M215.34 96.1964L203.522 100.506L202.858 98.6855L214.676 94.3757L215.34 96.1964Z" fill="white"/>
<path d="M215.704 108.949C215.895 109.835 215.878 110.673 215.654 111.463C215.431 112.254 215.007 112.924 214.384 113.476C213.761 114.028 212.973 114.406 212.02 114.611C211.056 114.819 210.177 114.8 209.382 114.554C208.587 114.308 207.924 113.871 207.395 113.243C206.866 112.615 206.505 111.858 206.314 110.971C206.123 110.085 206.14 109.247 206.364 108.456C206.59 107.677 207.014 107.006 207.635 106.444C208.269 105.89 209.062 105.51 210.015 105.305C210.968 105.1 211.842 105.12 212.637 105.366C213.434 105.623 214.096 106.06 214.623 106.677C215.153 107.305 215.513 108.062 215.704 108.949ZM214.059 109.303C213.954 108.815 213.746 108.391 213.436 108.028C213.127 107.666 212.711 107.408 212.191 107.253C211.684 107.107 211.099 107.106 210.434 107.249C209.758 107.395 209.219 107.638 208.818 107.98C208.418 108.333 208.152 108.738 208.019 109.196C207.885 109.653 207.871 110.126 207.976 110.613C208.081 111.101 208.289 111.526 208.599 111.888C208.909 112.25 209.317 112.504 209.824 112.65C210.333 112.807 210.925 112.813 211.601 112.667C212.266 112.524 212.798 112.276 213.197 111.923C213.61 111.579 213.883 111.178 214.016 110.721C214.15 110.263 214.164 109.79 214.059 109.303Z" fill="white"/>
<path d="M217.539 123.676C217.571 124.526 217.389 125.258 216.993 125.874C216.596 126.49 216.057 126.936 215.376 127.211L217.55 127.129L217.623 129.066L208.263 129.419L208.19 127.482L210.364 127.4C209.664 127.177 209.093 126.773 208.651 126.189C208.21 125.604 207.973 124.887 207.941 124.038C207.91 123.223 208.075 122.485 208.436 121.825C208.797 121.176 209.333 120.657 210.045 120.267C210.756 119.877 211.604 119.664 212.589 119.627C213.563 119.59 214.419 119.739 215.158 120.074C215.896 120.41 216.47 120.887 216.879 121.507C217.288 122.138 217.508 122.861 217.539 123.676ZM215.863 124.335C215.83 123.474 215.527 122.794 214.952 122.294C214.389 121.805 213.627 121.578 212.664 121.614C211.701 121.651 210.952 121.934 210.417 122.465C209.893 123.006 209.647 123.707 209.679 124.568C209.7 125.111 209.843 125.594 210.108 126.015C210.385 126.435 210.76 126.761 211.234 126.993C211.707 127.225 212.256 127.329 212.879 127.305C213.49 127.282 214.023 127.137 214.478 126.871C214.945 126.604 215.294 126.25 215.527 125.811C215.771 125.37 215.883 124.879 215.863 124.335Z" fill="white"/>
<path d="M216.761 139.946C216.64 140.788 216.33 141.476 215.83 142.011C215.33 142.547 214.72 142.883 214.002 143.021L219.337 143.784L219.06 145.719L206.607 143.937L206.884 142.002L209.038 142.31C208.387 141.977 207.897 141.483 207.567 140.829C207.237 140.175 207.132 139.427 207.253 138.586C207.368 137.778 207.662 137.082 208.135 136.497C208.607 135.923 209.227 135.508 209.997 135.252C210.766 134.996 211.639 134.937 212.615 135.077C213.58 135.215 214.395 135.515 215.062 135.977C215.729 136.439 216.208 137.011 216.499 137.694C216.789 138.388 216.876 139.139 216.761 139.946ZM214.994 140.295C215.116 139.442 214.939 138.718 214.463 138.124C213.997 137.542 213.287 137.182 212.333 137.046C211.379 136.909 210.592 137.054 209.97 137.481C209.357 137.92 208.99 138.565 208.868 139.418C208.791 139.956 208.845 140.457 209.031 140.918C209.228 141.381 209.539 141.769 209.964 142.082C210.388 142.395 210.909 142.595 211.526 142.684C212.132 142.77 212.683 142.723 213.178 142.542C213.684 142.363 214.092 142.078 214.399 141.687C214.718 141.297 214.917 140.833 214.994 140.295Z" fill="white"/>
<path d="M199.902 175.614C198.849 175.014 198.051 174.273 197.51 173.391C196.973 172.525 196.724 171.554 196.761 170.48C196.793 169.416 197.135 168.313 197.785 167.171L199.77 163.684L210.2 169.623L208.215 173.109C207.564 174.252 206.79 175.108 205.891 175.679C204.996 176.265 204.04 176.549 203.02 176.529C201.996 176.519 200.956 176.214 199.902 175.614ZM199.383 167.904C198.67 169.155 198.449 170.3 198.717 171.34C198.986 172.38 199.706 173.233 200.878 173.901C202.05 174.568 203.152 174.752 204.183 174.452C205.215 174.153 206.086 173.378 206.799 172.127L207.749 170.457L200.333 166.235L199.383 167.904Z" fill="white"/>
<path d="M196.072 186.19C195.49 186.884 194.818 187.386 194.057 187.695C193.296 188.003 192.506 188.081 191.688 187.928C190.87 187.775 190.088 187.385 189.341 186.759C188.585 186.126 188.06 185.42 187.766 184.641C187.472 183.863 187.411 183.072 187.581 182.268C187.752 181.465 188.128 180.716 188.71 180.021C189.293 179.326 189.964 178.824 190.726 178.515C191.48 178.216 192.269 178.138 193.094 178.282C193.921 178.443 194.708 178.836 195.455 179.462C196.202 180.088 196.723 180.79 197.017 181.569C197.303 182.356 197.365 183.147 197.202 183.942C197.031 184.745 196.655 185.495 196.072 186.19ZM194.782 185.109C195.103 184.726 195.311 184.302 195.406 183.835C195.502 183.368 195.451 182.882 195.253 182.376C195.057 181.886 194.699 181.423 194.178 180.987C193.648 180.543 193.125 180.267 192.608 180.16C192.085 180.061 191.601 180.1 191.158 180.275C190.715 180.451 190.334 180.73 190.013 181.112C189.693 181.495 189.485 181.919 189.39 182.386C189.294 182.853 189.344 183.332 189.54 183.821C189.729 184.319 190.088 184.79 190.618 185.234C191.139 185.671 191.662 185.939 192.185 186.038C192.71 186.152 193.194 186.122 193.637 185.946C194.081 185.77 194.462 185.491 194.782 185.109Z" fill="white"/>
<path d="M178.163 202.581L174.269 193.673L175.931 192.322L182.294 196.48L179.544 189.382L181.192 188.041L189.121 193.665L187.605 194.899L181.435 190.144L184.4 197.506L182.818 198.794L176.187 194.414L179.587 201.422L178.163 202.581Z" fill="white"/>
<path d="M168.45 208.179C167.488 208.689 166.553 208.787 165.643 208.474C164.733 208.161 163.973 207.428 163.363 206.277L160.808 201.455L162.52 200.547L164.98 205.189C165.372 205.93 165.865 206.4 166.458 206.599C167.056 206.808 167.686 206.737 168.347 206.387C169.028 206.026 169.457 205.516 169.634 204.858C169.816 204.21 169.684 203.465 169.239 202.624L166.906 198.223L168.619 197.316L173.005 205.592L171.292 206.5L170.329 204.682C170.438 205.42 170.322 206.097 169.982 206.713C169.641 207.33 169.131 207.818 168.45 208.179Z" fill="white"/>
<path d="M157.755 216.085L153.506 204.244L155.33 203.59L159.579 215.431L157.755 216.085Z" fill="white"/>
<path d="M144.999 216.382C144.112 216.568 143.274 216.548 142.485 216.32C141.696 216.092 141.027 215.665 140.479 215.039C139.93 214.413 139.556 213.623 139.356 212.669C139.153 211.704 139.177 210.824 139.427 210.031C139.677 209.237 140.118 208.577 140.748 208.051C141.379 207.525 142.138 207.168 143.025 206.982C143.913 206.796 144.751 206.817 145.54 207.045C146.318 207.275 146.986 207.702 147.546 208.326C148.097 208.963 148.472 209.758 148.672 210.712C148.873 211.666 148.848 212.54 148.598 213.333C148.336 214.129 147.896 214.789 147.276 215.313C146.646 215.839 145.887 216.196 144.999 216.382ZM144.654 214.735C145.142 214.632 145.567 214.427 145.931 214.119C146.295 213.811 146.556 213.397 146.713 212.878C146.861 212.372 146.866 211.786 146.726 211.121C146.584 210.444 146.343 209.904 146.004 209.501C145.653 209.1 145.249 208.831 144.792 208.696C144.335 208.56 143.863 208.543 143.375 208.646C142.887 208.748 142.461 208.954 142.097 209.262C141.733 209.57 141.477 209.977 141.329 210.483C141.169 210.991 141.16 211.583 141.302 212.26C141.442 212.925 141.687 213.459 142.038 213.86C142.38 214.275 142.779 214.55 143.236 214.685C143.693 214.821 144.166 214.837 144.654 214.735Z" fill="white"/>
<path d="M130.262 218.14C129.412 218.168 128.68 217.982 128.067 217.582C127.453 217.183 127.01 216.642 126.738 215.959L126.809 218.134L124.872 218.197L124.567 208.835L126.504 208.772L126.575 210.946C126.802 210.247 127.209 209.679 127.795 209.24C128.382 208.801 129.1 208.568 129.95 208.541C130.765 208.514 131.502 208.683 132.16 209.047C132.807 209.411 133.324 209.95 133.71 210.663C134.096 211.377 134.305 212.226 134.337 213.211C134.368 214.186 134.215 215.041 133.876 215.778C133.537 216.515 133.057 217.086 132.435 217.492C131.802 217.898 131.077 218.114 130.262 218.14ZM129.612 216.461C130.473 216.433 131.155 216.133 131.658 215.561C132.15 215 132.38 214.239 132.349 213.276C132.318 212.313 132.038 211.563 131.51 211.024C130.972 210.497 130.272 210.248 129.411 210.276C128.867 210.294 128.384 210.434 127.962 210.697C127.54 210.972 127.212 211.345 126.978 211.818C126.744 212.29 126.637 212.838 126.657 213.461C126.677 214.073 126.819 214.607 127.083 215.063C127.348 215.531 127.699 215.882 128.138 216.117C128.577 216.364 129.068 216.478 129.612 216.461Z" fill="white"/>
<path d="M113.997 217.279C113.156 217.155 112.469 216.841 111.937 216.338C111.404 215.835 111.071 215.224 110.937 214.505L110.146 219.836L108.212 219.549L110.058 207.105L111.992 207.392L111.673 209.545C112.01 208.896 112.506 208.408 113.162 208.081C113.817 207.755 114.566 207.654 115.407 207.779C116.214 207.898 116.908 208.196 117.491 208.672C118.062 209.146 118.474 209.769 118.726 210.54C118.978 211.31 119.032 212.183 118.888 213.159C118.744 214.123 118.44 214.937 117.975 215.601C117.51 216.266 116.935 216.742 116.251 217.03C115.555 217.316 114.804 217.399 113.997 217.279ZM113.658 215.511C114.51 215.637 115.234 215.464 115.831 214.991C116.416 214.528 116.779 213.82 116.92 212.867C117.061 211.914 116.921 211.125 116.498 210.501C116.062 209.887 115.418 209.516 114.566 209.39C114.028 209.31 113.527 209.362 113.065 209.545C112.601 209.74 112.211 210.048 111.896 210.471C111.581 210.894 111.378 211.414 111.287 212.031C111.197 212.636 111.241 213.187 111.42 213.683C111.596 214.191 111.879 214.599 112.269 214.909C112.657 215.23 113.12 215.431 113.658 215.511Z" fill="white"/>
</svg>
