<svg width="178" height="44" viewBox="0 0 178 44" fill="none" xmlns="http://www.w3.org/2000/svg">
<path d="M17.575 33.9235C16.1647 33.9235 14.7905 33.2726 13.4525 31.4283L8.75143 25.0999L10.7404 23.5088C13.0186 21.6283 15.3691 20.8328 17.1411 20.8328C17.2495 20.8328 17.2495 20.3988 17.1411 20.3988C16.1285 20.3988 15.1883 20.4711 13.344 20.4711C11.3189 20.4711 10.3426 20.3988 9.14922 20.3988C9.00457 20.3988 9.00457 20.8328 9.14922 20.8328C11.3913 20.8328 11.7529 21.9538 9.98095 23.3641L5.38835 27.1973V8.46529C5.38835 8.32064 5.17138 8.13983 5.02673 8.13983C4.99057 8.13983 4.9544 8.13983 4.84592 8.176L0.180994 10.4181C0.000183105 10.4904 0.180994 10.9243 0.397967 10.852C1.08505 10.5265 1.59132 10.3457 1.9891 10.3457C2.82083 10.3457 3.11013 11.1051 3.11013 12.8048V31.4283C3.11013 33.4534 2.71235 33.9235 0.904238 33.9235C0.759589 33.9235 0.759589 34.3574 0.904238 34.3574C1.77213 34.3574 2.96548 34.2851 4.26732 34.2851C5.533 34.2851 6.72635 34.3574 7.63041 34.3574C7.77505 34.3574 7.77505 33.9235 7.63041 33.9235C5.78613 33.9235 5.38835 33.4534 5.38835 31.4283V27.8121L6.97949 26.5464L11.3913 32.4408C12.0784 33.4534 11.6444 33.9235 9.98095 33.9235C9.87246 33.9235 9.87246 34.3574 9.98095 34.3574C11.102 34.3574 12.3677 34.2851 14.2119 34.2851C15.4776 34.2851 16.671 34.3574 17.575 34.3574C17.6835 34.3574 17.6835 33.9235 17.575 33.9235ZM22.7177 15.9509C23.7302 15.9509 24.345 15.3361 24.345 14.2874C24.345 13.311 23.7302 12.6963 22.7177 12.6963C21.669 12.6963 21.018 13.311 21.018 14.2874C21.018 15.3361 21.669 15.9509 22.7177 15.9509ZM19.6077 34.3574C20.4756 34.3574 21.669 34.2851 22.9708 34.2851C24.2365 34.2851 25.4298 34.3574 26.3339 34.3574C26.4785 34.3574 26.4785 33.9235 26.3339 33.9235C24.4896 33.9235 24.128 33.4534 24.128 31.4283V24.666C24.128 22.3516 24.2003 20.8328 24.2003 20.3988C24.2003 20.2542 23.9833 20.0734 23.8387 20.0734L23.694 20.1095L18.8845 22.3516C18.7037 22.4239 18.8483 22.8578 19.0653 22.7855C19.7524 22.4239 20.2586 22.2792 20.6564 22.2792C21.5243 22.2792 21.8136 23.0387 21.8136 24.7021V31.4283C21.8136 33.4534 21.4158 33.9235 19.6077 33.9235C19.4631 33.9235 19.4631 34.3574 19.6077 34.3574ZM38.8635 32.4047C38.1764 32.9109 37.2001 33.4172 35.9705 33.4172C34.1986 33.4172 33.1499 32.5132 33.1499 30.5242V21.6283C34.8134 21.6645 36.3322 21.773 37.9956 22.1708C38.1764 22.2069 38.3573 21.6645 38.3573 21.2667C38.3573 20.8328 38.2488 20.435 38.1041 20.435C36.296 20.6158 34.7772 20.7604 33.1499 20.7966V18.0483C33.1499 17.9036 32.6436 17.9036 32.6075 18.0483C32.3182 19.7479 31.0163 20.7966 28.9551 20.8328C28.8104 20.8328 28.8104 21.339 28.9551 21.339C30.5462 21.339 30.8355 21.6283 30.8355 23.328V31.7537C30.8355 34.1043 32.5713 34.7914 34.3432 34.7914C35.9705 34.7914 37.3085 34.2128 39.0805 32.7663C39.2613 32.6216 39.0082 32.2962 38.8635 32.4047ZM48.1532 34.7914C50.2868 34.7914 51.9141 34.1043 53.5776 32.5855C53.7222 32.477 53.4691 32.2239 53.3244 32.2962C52.2034 33.1279 51.0101 33.4534 49.7082 33.4534C45.4049 33.4534 43.7053 30.2711 43.7053 26.5464C43.7053 23.1471 45.1879 20.7966 47.8278 20.7966C49.2381 20.7966 49.7805 21.3752 50.2507 22.3154C50.5761 23.0387 51.1185 23.6173 51.9864 23.6173C52.8543 23.6173 53.3606 23.0387 53.3606 22.3516C53.3606 20.9774 51.1185 20.0734 49.0935 20.0734C45.3326 20.0734 41.0655 22.8217 41.0655 27.6674C41.0655 31.0667 43.199 34.7914 48.1532 34.7914ZM72.0957 33.9235C70.2515 33.9235 69.8537 33.4534 69.8537 31.4283V24.449C69.8537 21.5922 68.3349 20.001 65.695 20.001C63.7061 20.001 61.898 21.0136 60.126 23.0748V8.46529C60.126 8.32064 59.9452 8.13983 59.7644 8.13983H59.6559L54.9187 10.4181C54.7379 10.4904 54.9187 10.9243 55.1357 10.852C55.8227 10.5265 56.329 10.3457 56.7268 10.3457C57.5585 10.3457 57.8478 11.1051 57.8478 12.8048V31.4283C57.8478 33.4534 57.45 33.9235 55.6419 33.9235C55.4973 33.9235 55.4973 34.3574 55.6419 34.3574C56.5098 34.3574 57.7032 34.2851 59.005 34.2851C60.2707 34.2851 61.464 34.3574 62.3681 34.3574C62.5127 34.3574 62.5127 33.9235 62.3681 33.9235C60.5238 33.9235 60.126 33.4534 60.126 31.4283V23.7257C61.3194 22.4239 62.8744 21.6283 64.3209 21.6283C66.5629 21.6283 67.5755 22.9663 67.5755 25.787V31.4283C67.5755 33.4534 67.1777 33.9235 65.3696 33.9235C65.2249 33.9235 65.2249 34.3574 65.3696 34.3574C66.2375 34.3574 67.4308 34.2851 68.7326 34.2851C69.9983 34.2851 71.1917 34.3574 72.0957 34.3574C72.2404 34.3574 72.2404 33.9235 72.0957 33.9235ZM85.9458 32.26C84.861 32.9109 83.9569 33.4172 82.3658 33.4172C78.6772 33.4172 76.6883 30.5242 76.6883 26.4379C76.6883 26.004 76.7245 25.6062 76.7606 25.2084L85.6927 25.1722C86.0182 25.1722 86.1267 24.8468 86.1267 24.1958C86.1267 21.556 84.6078 20.0734 81.8234 20.0734C77.4839 20.0734 74.0846 23.5088 74.0846 27.8121C74.0846 31.4283 76.4352 34.7914 80.847 34.7914C82.7274 34.7914 84.4632 34.1766 86.199 32.6216C86.3075 32.477 86.0543 32.1877 85.9458 32.26ZM80.5938 20.7966C82.3658 20.7966 83.4145 22.0623 83.4145 24.5575L76.833 24.7021C77.2308 22.2431 78.5688 20.7966 80.5938 20.7966ZM105.625 33.9235C103.78 33.9235 103.419 33.4534 103.419 31.4283V24.3767C103.419 21.5198 101.864 19.9287 99.2239 19.9287C97.2711 19.9287 95.463 20.9412 93.691 23.0387C93.6549 21.0859 93.004 20.0734 92.6062 20.0734C92.57 20.0734 92.4977 20.0734 92.3892 20.1095L88.0497 22.2069C87.8689 22.2792 88.0136 22.677 88.2306 22.6047C89.0623 22.2792 89.677 22.0623 90.1472 22.0623C91.0512 22.0623 91.3767 22.7855 91.3767 24.3405V31.4283C91.3767 33.4534 91.015 33.9235 89.2069 33.9235C89.0623 33.9235 89.0623 34.3574 89.2069 34.3574C90.0748 34.3574 91.2682 34.2851 92.5339 34.2851C93.7995 34.2851 94.9929 34.3574 95.8969 34.3574C96.0416 34.3574 96.0416 33.9235 95.8969 33.9235C94.0527 33.9235 93.691 33.4534 93.691 31.4283V23.6534C94.8844 22.3516 96.4394 21.5922 97.8497 21.5922C100.092 21.5922 101.104 22.8578 101.104 25.6785V31.4283C101.104 33.4534 100.743 33.9235 98.9346 33.9235C98.7899 33.9235 98.7899 34.3574 98.9346 34.3574C99.8025 34.3574 100.996 34.2851 102.261 34.2851C103.527 34.2851 104.721 34.3574 105.625 34.3574C105.769 34.3574 105.769 33.9235 105.625 33.9235Z" fill="#362F25"/>
<path d="M127.32 19.7538C129.07 19.7538 130.447 20.2995 131.452 21.3909C132.474 22.4649 132.985 23.998 132.985 25.9902V34.3574H129.347V26.406C129.347 25.2973 129.061 24.4484 128.489 23.8594C127.935 23.2531 127.164 22.95 126.177 22.95C125.155 22.95 124.34 23.2704 123.734 23.9114C123.128 24.5524 122.825 25.4878 122.825 26.7178V34.3574H119.187V26.406C119.187 25.2973 118.901 24.4484 118.329 23.8594C117.775 23.2531 117.004 22.95 116.016 22.95C114.994 22.95 114.18 23.2704 113.574 23.9114C112.968 24.5524 112.664 25.4878 112.664 26.7178V34.3574H109.001V19.9617H112.664V22.6901C113.046 21.7546 113.643 21.0357 114.457 20.5333C115.289 20.0136 116.25 19.7538 117.342 19.7538C118.502 19.7538 119.507 20.031 120.356 20.5853C121.222 21.1397 121.872 21.9365 122.305 22.9759C122.755 21.9885 123.422 21.209 124.306 20.6373C125.207 20.0483 126.211 19.7538 127.32 19.7538ZM135.788 15.83C135.788 15.2411 135.996 14.7647 136.412 14.4009C136.827 14.0198 137.373 13.8292 138.049 13.8292C138.724 13.8292 139.27 14.0198 139.686 14.4009C140.101 14.7647 140.309 15.2411 140.309 15.83C140.309 16.4017 140.101 16.8781 139.686 17.2592C139.27 17.623 138.724 17.8049 138.049 17.8049C137.373 17.8049 136.827 17.623 136.412 17.2592C135.996 16.8781 135.788 16.4017 135.788 15.83ZM139.868 19.9617V34.3574H136.204V19.9617H139.868ZM151.757 19.7538C153.42 19.7538 154.745 20.2995 155.733 21.3909C156.72 22.4822 157.214 24.0154 157.214 25.9902V34.3574H153.576V26.406C153.576 25.2626 153.282 24.3791 152.693 23.7555C152.104 23.1145 151.298 22.7941 150.276 22.7941C149.237 22.7941 148.405 23.1319 147.781 23.8075C147.158 24.4831 146.846 25.4532 146.846 26.7178V34.3574H143.182V19.9617H146.846V22.846C147.227 21.8759 147.851 21.1223 148.717 20.5853C149.6 20.031 150.614 19.7538 151.757 19.7538ZM166.077 19.7798C167.289 19.7798 168.32 20.0656 169.169 20.6373C170.035 21.209 170.659 21.9799 171.04 22.95V15.1284H174.678V34.3574H171.04V31.3432C170.659 32.3133 170.035 33.0928 169.169 33.6818C168.32 34.2535 167.289 34.5393 166.077 34.5393C164.864 34.5393 163.773 34.2448 162.802 33.6558C161.832 33.0668 161.07 32.218 160.516 31.1093C159.979 29.9833 159.71 28.6667 159.71 27.1595C159.71 25.6524 159.979 24.3445 160.516 23.2358C161.07 22.1098 161.832 21.2523 162.802 20.6633C163.773 20.0743 164.864 19.7798 166.077 19.7798ZM167.22 22.9759C166.077 22.9759 165.158 23.3484 164.465 24.0933C163.773 24.8382 163.426 25.8603 163.426 27.1595C163.426 28.4588 163.773 29.4809 164.465 30.2258C165.158 30.9534 166.077 31.3172 167.22 31.3172C168.329 31.3172 169.238 30.9447 169.948 30.1998C170.676 29.4376 171.04 28.4242 171.04 27.1595C171.04 25.8776 170.676 24.8642 169.948 24.1193C169.238 23.3571 168.329 22.9759 167.22 22.9759Z" fill="#362F25"/>
</svg>
