<svg width="178" height="44" viewBox="0 0 178 44" fill="none" xmlns="http://www.w3.org/2000/svg">
<path d="M17.5748 33.9215C16.1645 33.9215 14.7903 33.2706 13.4523 31.4263L8.75125 25.0979L10.7402 23.5068C13.0184 21.6264 15.3689 20.8308 17.1409 20.8308C17.2494 20.8308 17.2494 20.3969 17.1409 20.3969C16.1283 20.3969 15.1881 20.4692 13.3438 20.4692C11.3188 20.4692 10.3424 20.3969 9.14903 20.3969C9.00439 20.3969 9.00439 20.8308 9.14903 20.8308C11.3911 20.8308 11.7527 21.9518 9.98077 23.3622L5.38817 27.1954V8.46334C5.38817 8.31869 5.17119 8.13788 5.02654 8.13788C4.99038 8.13788 4.95422 8.13788 4.84573 8.17404L0.180811 10.4161C0 10.4884 0.180811 10.9224 0.397784 10.85C1.08487 10.5246 1.59114 10.3438 1.98892 10.3438C2.82065 10.3438 3.10995 11.1032 3.10995 12.8028V31.4263C3.10995 33.4514 2.71216 33.9215 0.904055 33.9215C0.759406 33.9215 0.759406 34.3555 0.904055 34.3555C1.77195 34.3555 2.9653 34.2831 4.26714 34.2831C5.53282 34.2831 6.72617 34.3555 7.63022 34.3555C7.77487 34.3555 7.77487 33.9215 7.63022 33.9215C5.78595 33.9215 5.38817 33.4514 5.38817 31.4263V27.8101L6.9793 26.5444L11.3911 32.4389C12.0782 33.4514 11.6442 33.9215 9.98077 33.9215C9.87228 33.9215 9.87228 34.3555 9.98077 34.3555C11.1018 34.3555 12.3675 34.2831 14.2117 34.2831C15.4774 34.2831 16.6708 34.3555 17.5748 34.3555C17.6833 34.3555 17.6833 33.9215 17.5748 33.9215ZM22.7175 15.9489C23.73 15.9489 24.3448 15.3342 24.3448 14.2855C24.3448 13.3091 23.73 12.6943 22.7175 12.6943C21.6688 12.6943 21.0179 13.3091 21.0179 14.2855C21.0179 15.3342 21.6688 15.9489 22.7175 15.9489ZM19.6075 34.3555C20.4754 34.3555 21.6688 34.2831 22.9706 34.2831C24.2363 34.2831 25.4296 34.3555 26.3337 34.3555C26.4784 34.3555 26.4784 33.9215 26.3337 33.9215C24.4894 33.9215 24.1278 33.4514 24.1278 31.4263V24.664C24.1278 22.3496 24.2001 20.8308 24.2001 20.3969C24.2001 20.2522 23.9832 20.0714 23.8385 20.0714L23.6939 20.1076L18.8843 22.3496C18.7035 22.4219 18.8481 22.8559 19.0651 22.7836C19.7522 22.4219 20.2585 22.2773 20.6562 22.2773C21.5241 22.2773 21.8134 23.0367 21.8134 24.7002V31.4263C21.8134 33.4514 21.4156 33.9215 19.6075 33.9215C19.4629 33.9215 19.4629 34.3555 19.6075 34.3555ZM38.8633 32.4027C38.1763 32.909 37.1999 33.4153 35.9704 33.4153C34.1984 33.4153 33.1497 32.5112 33.1497 30.5223V21.6264C34.8132 21.6625 36.332 21.771 37.9954 22.1688C38.1763 22.205 38.3571 21.6625 38.3571 21.2648C38.3571 20.8308 38.2486 20.433 38.1039 20.433C36.2958 20.6138 34.777 20.7585 33.1497 20.7946V18.0463C33.1497 17.9017 32.6434 17.9017 32.6073 18.0463C32.318 19.7459 31.0161 20.7946 28.9549 20.8308C28.8102 20.8308 28.8102 21.3371 28.9549 21.3371C30.546 21.3371 30.8353 21.6264 30.8353 23.326V31.7518C30.8353 34.1023 32.5711 34.7894 34.3431 34.7894C35.9704 34.7894 37.3084 34.2108 39.0803 32.7643C39.2611 32.6197 39.008 32.2942 38.8633 32.4027ZM48.1531 34.7894C50.2866 34.7894 51.9139 34.1023 53.5774 32.5835C53.722 32.475 53.4689 32.2219 53.3243 32.2942C52.2032 33.126 51.0099 33.4514 49.708 33.4514C45.4047 33.4514 43.7051 30.2691 43.7051 26.5444C43.7051 23.1452 45.1878 20.7946 47.8276 20.7946C49.2379 20.7946 49.7804 21.3732 50.2505 22.3135C50.5759 23.0367 51.1184 23.6153 51.9863 23.6153C52.8542 23.6153 53.3604 23.0367 53.3604 22.3496C53.3604 20.9755 51.1184 20.0714 49.0933 20.0714C45.3324 20.0714 41.0653 22.8197 41.0653 27.6655C41.0653 31.0647 43.1988 34.7894 48.1531 34.7894ZM72.0955 33.9215C70.2513 33.9215 69.8535 33.4514 69.8535 31.4263V24.447C69.8535 21.5902 68.3347 19.9991 65.6948 19.9991C63.7059 19.9991 61.8978 21.0116 60.1259 23.0729V8.46334C60.1259 8.31869 59.945 8.13788 59.7642 8.13788H59.6557L54.9185 10.4161C54.7377 10.4884 54.9185 10.9224 55.1355 10.85C55.8226 10.5246 56.3288 10.3438 56.7266 10.3438C57.5583 10.3438 57.8476 11.1032 57.8476 12.8028V31.4263C57.8476 33.4514 57.4499 33.9215 55.6417 33.9215C55.4971 33.9215 55.4971 34.3555 55.6417 34.3555C56.5096 34.3555 57.703 34.2831 59.0048 34.2831C60.2705 34.2831 61.4639 34.3555 62.3679 34.3555C62.5126 34.3555 62.5126 33.9215 62.3679 33.9215C60.5236 33.9215 60.1259 33.4514 60.1259 31.4263V23.7238C61.3192 22.4219 62.8742 21.6264 64.3207 21.6264C66.5627 21.6264 67.5753 22.9644 67.5753 25.785V31.4263C67.5753 33.4514 67.1775 33.9215 65.3694 33.9215C65.2247 33.9215 65.2247 34.3555 65.3694 34.3555C66.2373 34.3555 67.4306 34.2831 68.7325 34.2831C69.9981 34.2831 71.1915 34.3555 72.0955 34.3555C72.2402 34.3555 72.2402 33.9215 72.0955 33.9215ZM85.9457 32.2581C84.8608 32.909 83.9567 33.4153 82.3656 33.4153C78.6771 33.4153 76.6881 30.5223 76.6881 26.4359C76.6881 26.002 76.7243 25.6042 76.7605 25.2064L85.6925 25.1703C86.018 25.1703 86.1265 24.8448 86.1265 24.1939C86.1265 21.5541 84.6077 20.0714 81.8232 20.0714C77.4837 20.0714 74.0845 23.5068 74.0845 27.8101C74.0845 31.4263 76.435 34.7894 80.8468 34.7894C82.7272 34.7894 84.463 34.1747 86.1988 32.6197C86.3073 32.475 86.0541 32.1857 85.9457 32.2581ZM80.5937 20.7946C82.3656 20.7946 83.4143 22.0603 83.4143 24.5555L76.8328 24.7002C77.2306 22.2411 78.5686 20.7946 80.5937 20.7946ZM105.624 33.9215C103.78 33.9215 103.418 33.4514 103.418 31.4263V24.3747C103.418 21.5179 101.864 19.9268 99.2237 19.9268C97.2709 19.9268 95.4628 20.9393 93.6909 23.0367C93.6547 21.0839 93.0038 20.0714 92.606 20.0714C92.5698 20.0714 92.4975 20.0714 92.389 20.1076L88.0496 22.205C87.8688 22.2773 88.0134 22.6751 88.2304 22.6028C89.0621 22.2773 89.6769 22.0603 90.147 22.0603C91.051 22.0603 91.3765 22.7836 91.3765 24.3385V31.4263C91.3765 33.4514 91.0149 33.9215 89.2068 33.9215C89.0621 33.9215 89.0621 34.3555 89.2068 34.3555C90.0746 34.3555 91.268 34.2831 92.5337 34.2831C93.7994 34.2831 94.9927 34.3555 95.8968 34.3555C96.0414 34.3555 96.0414 33.9215 95.8968 33.9215C94.0525 33.9215 93.6909 33.4514 93.6909 31.4263V23.6515C94.8842 22.3496 96.4392 21.5902 97.8495 21.5902C100.092 21.5902 101.104 22.8559 101.104 25.6765V31.4263C101.104 33.4514 100.742 33.9215 98.9344 33.9215C98.7897 33.9215 98.7897 34.3555 98.9344 34.3555C99.8023 34.3555 100.996 34.2831 102.261 34.2831C103.527 34.2831 104.72 34.3555 105.624 34.3555C105.769 34.3555 105.769 33.9215 105.624 33.9215Z" fill="white"/>
<path d="M127.32 19.7518C129.07 19.7518 130.447 20.2975 131.452 21.3889C132.474 22.463 132.985 23.9961 132.985 25.9883V34.3555H129.347V26.404C129.347 25.2953 129.061 24.4465 128.489 23.8575C127.935 23.2512 127.164 22.948 126.177 22.948C125.155 22.948 124.34 23.2685 123.734 23.9095C123.128 24.5504 122.825 25.4859 122.825 26.7158V34.3555H119.187V26.404C119.187 25.2953 118.901 24.4465 118.329 23.8575C117.775 23.2512 117.004 22.948 116.016 22.948C114.994 22.948 114.18 23.2685 113.574 23.9095C112.968 24.5504 112.664 25.4859 112.664 26.7158V34.3555H109V19.9597H112.664V22.6882C113.045 21.7527 113.643 21.0338 114.457 20.5314C115.289 20.0117 116.25 19.7518 117.342 19.7518C118.502 19.7518 119.507 20.029 120.356 20.5834C121.222 21.1377 121.872 21.9346 122.305 22.974C122.755 21.9866 123.422 21.207 124.306 20.6353C125.206 20.0463 126.211 19.7518 127.32 19.7518ZM135.788 15.8281C135.788 15.2391 135.996 14.7627 136.411 14.3989C136.827 14.0178 137.373 13.8272 138.049 13.8272C138.724 13.8272 139.27 14.0178 139.686 14.3989C140.101 14.7627 140.309 15.2391 140.309 15.8281C140.309 16.3998 140.101 16.8762 139.686 17.2573C139.27 17.6211 138.724 17.803 138.049 17.803C137.373 17.803 136.827 17.6211 136.411 17.2573C135.996 16.8762 135.788 16.3998 135.788 15.8281ZM139.867 19.9597V34.3555H136.204V19.9597H139.867ZM151.757 19.7518C153.42 19.7518 154.745 20.2975 155.733 21.3889C156.72 22.4803 157.214 24.0134 157.214 25.9883V34.3555H153.576V26.404C153.576 25.2607 153.282 24.3772 152.693 23.7535C152.104 23.1126 151.298 22.7921 150.276 22.7921C149.237 22.7921 148.405 23.1299 147.781 23.8055C147.158 24.4811 146.846 25.4512 146.846 26.7158V34.3555H143.182V19.9597H146.846V22.8441C147.227 21.874 147.851 21.1204 148.717 20.5834C149.6 20.029 150.614 19.7518 151.757 19.7518ZM166.077 19.7778C167.289 19.7778 168.32 20.0637 169.169 20.6353C170.035 21.207 170.659 21.9779 171.04 22.948V15.1265H174.678V34.3555H171.04V31.3412C170.659 32.3113 170.035 33.0909 169.169 33.6799C168.32 34.2515 167.289 34.5374 166.077 34.5374C164.864 34.5374 163.773 34.2429 162.802 33.6539C161.832 33.0649 161.07 32.216 160.516 31.1073C159.979 29.9813 159.71 28.6647 159.71 27.1576C159.71 25.6505 159.979 24.3425 160.516 23.2338C161.07 22.1078 161.832 21.2503 162.802 20.6613C163.773 20.0723 164.864 19.7778 166.077 19.7778ZM167.22 22.974C166.077 22.974 165.158 23.3464 164.465 24.0914C163.773 24.8363 163.426 25.8583 163.426 27.1576C163.426 28.4569 163.773 29.4789 164.465 30.2238C165.158 30.9514 166.077 31.3152 167.22 31.3152C168.329 31.3152 169.238 30.9428 169.948 30.1979C170.676 29.4356 171.04 28.4222 171.04 27.1576C171.04 25.8757 170.676 24.8622 169.948 24.1173C169.238 23.3551 168.329 22.974 167.22 22.974Z" fill="white"/>
</svg>
