<svg width="532" height="133" viewBox="0 0 532 133" fill="none" xmlns="http://www.w3.org/2000/svg">
<path d="M53.8645 100.691C49.6214 100.691 45.487 98.7321 41.4615 93.1834L27.3176 74.1436L33.3016 69.3564C40.1559 63.6989 47.2278 61.3053 52.559 61.3053C52.8854 61.3053 52.8854 59.9997 52.559 59.9997C49.5126 59.9997 46.6838 60.2173 41.1351 60.2173C35.0423 60.2173 32.1048 59.9997 28.5144 59.9997C28.0792 59.9997 28.0792 61.3053 28.5144 61.3053C35.2599 61.3053 36.3479 64.6781 31.0168 68.9212L17.1993 80.4539V24.0961C17.1993 23.6609 16.5465 23.1169 16.1113 23.1169C16.0025 23.1169 15.8937 23.1169 15.5673 23.2257L1.53228 29.9712C0.988281 30.1888 1.53228 31.4944 2.18507 31.2768C4.25225 30.2976 5.77543 29.7536 6.97222 29.7536C9.47459 29.7536 10.345 32.0384 10.345 37.152V93.1834C10.345 99.2761 9.1482 100.691 3.70825 100.691C3.27306 100.691 3.27306 101.996 3.70825 101.996C6.31943 101.996 9.90979 101.778 13.8266 101.778C17.6345 101.778 21.2249 101.996 23.9448 101.996C24.38 101.996 24.38 100.691 23.9448 100.691C18.3961 100.691 17.1993 99.2761 17.1993 93.1834V82.3035L21.9865 78.4955L35.2599 96.2298C37.3271 99.2761 36.0215 100.691 31.0168 100.691C30.6904 100.691 30.6904 101.996 31.0168 101.996C34.3895 101.996 38.1975 101.778 43.7462 101.778C47.5542 101.778 51.1446 101.996 53.8645 101.996C54.1909 101.996 54.1909 100.691 53.8645 100.691ZM69.3369 46.6175C72.3833 46.6175 74.2329 44.7679 74.2329 41.6127C74.2329 38.6751 72.3833 36.8256 69.3369 36.8256C66.1818 36.8256 64.2234 38.6751 64.2234 41.6127C64.2234 44.7679 66.1818 46.6175 69.3369 46.6175ZM59.9802 101.996C62.5914 101.996 66.1818 101.778 70.0985 101.778C73.9065 101.778 77.4968 101.996 80.2168 101.996C80.652 101.996 80.652 100.691 80.2168 100.691C74.6681 100.691 73.5801 99.2761 73.5801 93.1834V72.838C73.5801 65.8749 73.7977 61.3053 73.7977 59.9997C73.7977 59.5645 73.1449 59.0205 72.7097 59.0205L72.2745 59.1293L57.8042 65.8749C57.2603 66.0925 57.6954 67.398 58.3482 67.1804C60.4154 66.0925 61.9386 65.6573 63.1354 65.6573C65.7466 65.6573 66.617 67.942 66.617 72.9468V93.1834C66.617 99.2761 65.4202 100.691 59.9802 100.691C59.545 100.691 59.545 101.996 59.9802 101.996ZM117.914 96.121C115.847 97.6441 112.909 99.1673 109.21 99.1673C103.879 99.1673 100.724 96.4474 100.724 90.4634V63.6989C105.728 63.8077 110.298 64.1341 115.303 65.3309C115.847 65.4397 116.391 63.8077 116.391 62.6109C116.391 61.3053 116.064 60.1085 115.629 60.1085C110.189 60.6525 105.62 61.0877 100.724 61.1965V52.9278C100.724 52.4926 99.2005 52.4926 99.0917 52.9278C98.2213 58.0413 94.3046 61.1965 88.103 61.3053C87.6678 61.3053 87.6678 62.8285 88.103 62.8285C92.8902 62.8285 93.7606 63.6989 93.7606 68.8124V94.1626C93.7606 101.235 98.9829 103.302 104.314 103.302C109.21 103.302 113.236 101.561 118.567 97.2089C119.111 96.7737 118.349 95.7946 117.914 96.121ZM145.863 103.302C152.282 103.302 157.178 101.235 162.183 96.6649C162.618 96.3386 161.857 95.577 161.422 95.7946C158.049 98.2969 154.458 99.2761 150.542 99.2761C137.595 99.2761 132.481 89.7018 132.481 78.4955C132.481 68.2684 136.942 61.1965 144.884 61.1965C149.127 61.1965 150.759 62.9373 152.174 65.7661C153.153 67.942 154.785 69.6828 157.396 69.6828C160.007 69.6828 161.53 67.942 161.53 65.8749C161.53 61.7405 154.785 59.0205 148.692 59.0205C137.377 59.0205 124.539 67.2892 124.539 81.8683C124.539 92.0954 130.958 103.302 145.863 103.302ZM217.898 100.691C212.349 100.691 211.152 99.2761 211.152 93.1834V72.1852C211.152 63.5901 206.582 58.8029 198.64 58.8029C192.656 58.8029 187.216 61.8493 181.885 68.0508V24.0961C181.885 23.6609 181.341 23.1169 180.797 23.1169H180.471L166.218 29.9712C165.674 30.1888 166.218 31.4944 166.871 31.2768C168.938 30.2976 170.461 29.7536 171.658 29.7536C174.16 29.7536 175.031 32.0384 175.031 37.152V93.1834C175.031 99.2761 173.834 100.691 168.394 100.691C167.959 100.691 167.959 101.996 168.394 101.996C171.005 101.996 174.596 101.778 178.512 101.778C182.32 101.778 185.911 101.996 188.631 101.996C189.066 101.996 189.066 100.691 188.631 100.691C183.082 100.691 181.885 99.2761 181.885 93.1834V70.0092C185.475 66.0925 190.154 63.6989 194.506 63.6989C201.251 63.6989 204.298 67.7244 204.298 76.2108V93.1834C204.298 99.2761 203.101 100.691 197.661 100.691C197.226 100.691 197.226 101.996 197.661 101.996C200.272 101.996 203.862 101.778 207.779 101.778C211.587 101.778 215.178 101.996 217.898 101.996C218.333 101.996 218.333 100.691 217.898 100.691ZM259.568 95.6858C256.304 97.6441 253.584 99.1673 248.796 99.1673C237.699 99.1673 231.715 90.4634 231.715 78.1691C231.715 76.8636 231.824 75.6668 231.933 74.47L258.806 74.3612C259.785 74.3612 260.112 73.382 260.112 71.4236C260.112 63.4813 255.542 59.0205 247.164 59.0205C234.109 59.0205 223.881 69.3564 223.881 82.3035C223.881 93.1834 230.953 103.302 244.227 103.302C249.884 103.302 255.107 101.452 260.329 96.7737C260.656 96.3386 259.894 95.4682 259.568 95.6858ZM243.465 61.1965C248.796 61.1965 251.952 65.0045 251.952 72.5116L232.15 72.9468C233.347 65.5485 237.373 61.1965 243.465 61.1965ZM318.774 100.691C313.225 100.691 312.137 99.2761 312.137 93.1834V71.9676C312.137 63.3725 307.459 58.5853 299.516 58.5853C293.641 58.5853 288.201 61.6317 282.87 67.942C282.761 62.0669 280.803 59.0205 279.606 59.0205C279.497 59.0205 279.28 59.0205 278.953 59.1293L265.897 65.4397C265.353 65.6573 265.789 66.8541 266.441 66.6365C268.944 65.6573 270.793 65.0045 272.208 65.0045C274.928 65.0045 275.907 67.1804 275.907 71.8588V93.1834C275.907 99.2761 274.819 100.691 269.379 100.691C268.944 100.691 268.944 101.996 269.379 101.996C271.99 101.996 275.581 101.778 279.388 101.778C283.196 101.778 286.787 101.996 289.507 101.996C289.942 101.996 289.942 100.691 289.507 100.691C283.958 100.691 282.87 99.2761 282.87 93.1834V69.7916C286.46 65.8749 291.139 63.5901 295.382 63.5901C302.127 63.5901 305.174 67.398 305.174 75.8844V93.1834C305.174 99.2761 304.086 100.691 298.646 100.691C298.211 100.691 298.211 101.996 298.646 101.996C301.257 101.996 304.847 101.778 308.655 101.778C312.463 101.778 316.054 101.996 318.774 101.996C319.209 101.996 319.209 100.691 318.774 100.691Z" fill="white"/>
<path d="M381.039 58.103C386.303 58.103 390.446 59.7448 393.469 63.0284C396.544 66.2598 398.082 70.8724 398.082 76.8662V102.04H387.137V78.117C387.137 74.7814 386.277 72.2275 384.557 70.4554C382.889 68.6312 380.57 67.7191 377.599 67.7191C374.524 67.7191 372.074 68.6834 370.25 70.6118C368.426 72.5402 367.514 75.3547 367.514 79.0552V102.04H356.568V78.117C356.568 74.7814 355.708 72.2275 353.988 70.4554C352.321 68.6312 350.001 67.7191 347.03 67.7191C343.955 67.7191 341.506 68.6834 339.682 70.6118C337.857 72.5402 336.945 75.3547 336.945 79.0552V102.04H325.922V58.7285H336.945V66.9373C338.092 64.1229 339.89 61.9599 342.34 60.4484C344.841 58.8848 347.734 58.103 351.018 58.103C354.51 58.103 357.533 58.937 360.086 60.6048C362.692 62.2726 364.647 64.6701 365.95 67.7973C367.305 64.8265 369.312 62.4811 371.97 60.7612C374.68 58.9891 377.703 58.103 381.039 58.103ZM406.515 46.2979C406.515 44.5258 407.141 43.0925 408.392 41.998C409.643 40.8514 411.284 40.2781 413.317 40.2781C415.35 40.2781 416.992 40.8514 418.242 41.998C419.493 43.0925 420.119 44.5258 420.119 46.2979C420.119 48.0179 419.493 49.4512 418.242 50.5978C416.992 51.6923 415.35 52.2396 413.317 52.2396C411.284 52.2396 409.643 51.6923 408.392 50.5978C407.141 49.4512 406.515 48.0179 406.515 46.2979ZM418.79 58.7285V102.04H407.766V58.7285H418.79ZM454.561 58.103C459.565 58.103 463.552 59.7448 466.523 63.0284C469.494 66.3119 470.979 70.9245 470.979 76.8662V102.04H460.034V78.117C460.034 74.6771 459.148 72.019 457.376 70.1427C455.604 68.2143 453.18 67.2501 450.105 67.2501C446.978 67.2501 444.476 68.2664 442.6 70.2991C440.723 72.3317 439.785 75.2505 439.785 79.0552V102.04H428.762V58.7285H439.785V67.4064C440.932 64.4877 442.808 62.2205 445.414 60.6048C448.072 58.937 451.121 58.103 454.561 58.103ZM497.643 58.1812C501.291 58.1812 504.393 59.0412 506.946 60.7612C509.552 62.4811 511.429 64.8004 512.575 67.7191V44.1871H523.521V102.04H512.575V92.9712C511.429 95.8899 509.552 98.2353 506.946 100.007C504.393 101.727 501.291 102.587 497.643 102.587C493.995 102.587 490.711 101.701 487.792 99.9292C484.874 98.1571 482.58 95.6032 480.913 92.2676C479.297 88.8798 478.489 84.9187 478.489 80.3843C478.489 75.8498 479.297 71.9148 480.913 68.5791C482.58 65.1913 484.874 62.6114 487.792 60.8393C490.711 59.0673 493.995 58.1812 497.643 58.1812ZM501.083 67.7973C497.643 67.7973 494.881 68.9179 492.796 71.1591C490.711 73.4002 489.669 76.4753 489.669 80.3843C489.669 84.2932 490.711 87.3683 492.796 89.6095C494.881 91.7985 497.643 92.893 501.083 92.893C504.419 92.893 507.155 91.7724 509.292 89.5313C511.481 87.238 512.575 84.189 512.575 80.3843C512.575 76.5274 511.481 73.4784 509.292 71.2372C507.155 68.944 504.419 67.7973 501.083 67.7973Z" fill="white"/>
</svg>
